<svg width="34" height="34" viewBox="0 0 34 34" fill="none" xmlns="http://www.w3.org/2000/svg">
<path d="M16.6667 6.66667C14.6889 6.66667 12.7555 7.25316 11.111 8.35197C9.46647 9.45078 8.18475 11.0126 7.42787 12.8398C6.671 14.6671 6.47296 16.6778 6.85881 18.6176C7.24467 20.5574 8.19707 22.3392 9.5956 23.7377C10.9941 25.1363 12.776 26.0887 14.7158 26.4745C16.6556 26.8604 18.6662 26.6623 20.4935 25.9055C22.3208 25.1486 23.8825 23.8669 24.9814 22.2224C26.0802 20.5779 26.6667 18.6445 26.6667 16.6667C26.6638 14.0154 25.6093 11.4735 23.7345 9.5988C21.8598 7.72406 19.3179 6.66957 16.6667 6.66667ZM10 16.6667C10.0018 14.8991 10.7047 13.2044 11.9546 11.9546C13.2044 10.7047 14.8991 10.0018 16.6667 10V23.3333C14.8991 23.3316 13.2044 22.6286 11.9546 21.3788C10.7047 20.1289 10.0018 18.4342 10 16.6667ZM15 3.33333V1.66667C15 1.22464 15.1756 0.800716 15.4882 0.488155C15.8007 0.175595 16.2246 0 16.6667 0C17.1087 0 17.5326 0.175595 17.8452 0.488155C18.1577 0.800716 18.3333 1.22464 18.3333 1.66667V3.33333C18.3333 3.77536 18.1577 4.19928 17.8452 4.51184C17.5326 4.82441 17.1087 5 16.6667 5C16.2246 5 15.8007 4.82441 15.4882 4.51184C15.1756 4.19928 15 3.77536 15 3.33333ZM18.3333 30V31.6667C18.3333 32.1087 18.1577 32.5326 17.8452 32.8452C17.5326 33.1577 17.1087 33.3333 16.6667 33.3333C16.2246 33.3333 15.8007 33.1577 15.4882 32.8452C15.1756 32.5326 15 32.1087 15 31.6667V30C15 29.558 15.1756 29.1341 15.4882 28.8215C15.8007 28.5089 16.2246 28.3333 16.6667 28.3333C17.1087 28.3333 17.5326 28.5089 17.8452 28.8215C18.1577 29.1341 18.3333 29.558 18.3333 30ZM24.917 8.41633C24.7622 8.26162 24.6394 8.07791 24.5556 7.87572C24.4718 7.67353 24.4287 7.45681 24.4287 7.23795C24.4287 7.01909 24.4718 6.80237 24.5556 6.60018C24.6394 6.39799 24.7622 6.21428 24.917 6.05957L26.0953 4.88123C26.2501 4.72649 26.4338 4.60373 26.636 4.51998C26.8382 4.43624 27.0549 4.39313 27.2737 4.39313C27.4926 4.39313 27.7093 4.43624 27.9115 4.51998C28.1136 4.60373 28.2974 4.72649 28.4521 4.88123C28.6068 5.03598 28.7296 5.21969 28.8134 5.42188C28.8971 5.62407 28.9402 5.84077 28.9402 6.05962C28.9402 6.27846 28.8971 6.49517 28.8134 6.69735C28.7296 6.89954 28.6068 7.08325 28.4521 7.238L27.2738 8.41633C27.119 8.57113 26.9353 8.69393 26.7332 8.77771C26.531 8.86149 26.3142 8.90462 26.0954 8.90462C25.8765 8.90462 25.6598 8.86149 25.4576 8.77771C25.2554 8.69393 25.0717 8.57113 24.917 8.41633ZM8.41633 24.917C8.57113 25.0717 8.69393 25.2554 8.77772 25.4576C8.8615 25.6598 8.90462 25.8765 8.90462 26.0954C8.90462 26.3142 8.8615 26.531 8.77772 26.7332C8.69393 26.9354 8.57113 27.1191 8.41633 27.2738L7.238 28.4521C7.08325 28.6068 6.89954 28.7296 6.69735 28.8134C6.49517 28.8971 6.27846 28.9402 6.05962 28.9402C5.84077 28.9402 5.62407 28.8971 5.42188 28.8134C5.21969 28.7296 5.03598 28.6068 4.88123 28.4521C4.72649 28.2974 4.60373 28.1136 4.51998 27.9115C4.43624 27.7093 4.39313 27.4926 4.39313 27.2737C4.39313 27.0549 4.43624 26.8382 4.51998 26.636C4.60373 26.4338 4.72649 26.2501 4.88123 26.0953L6.05957 24.917C6.21428 24.7622 6.39799 24.6394 6.60018 24.5556C6.80237 24.4718 7.01909 24.4287 7.23795 24.4287C7.45681 24.4287 7.67353 24.4718 7.87572 24.5556C8.07791 24.6394 8.26162 24.7622 8.41633 24.917ZM28.4522 26.0953C28.7647 26.4079 28.9403 26.8317 28.9403 27.2737C28.9403 27.7157 28.7647 28.1396 28.4522 28.4521C28.1396 28.7646 27.7157 28.9402 27.2738 28.9402C26.8318 28.9402 26.4079 28.7646 26.0954 28.4521L24.9171 27.2738C24.6045 26.9612 24.4289 26.5374 24.4289 26.0954C24.4289 25.6534 24.6045 25.2295 24.9171 24.917C25.2296 24.6045 25.6535 24.4289 26.0954 24.4289C26.5374 24.4289 26.9613 24.6045 27.2738 24.917L28.4522 26.0953ZM4.88118 7.23795C4.56866 6.92542 4.39308 6.50155 4.39308 6.05957C4.39308 5.61759 4.56866 5.19371 4.88118 4.88118C5.19371 4.56866 5.61759 4.39308 6.05957 4.39308C6.50155 4.39308 6.92542 4.56866 7.23795 4.88118L8.41628 6.05952C8.57103 6.21426 8.69379 6.39797 8.77754 6.60016C8.8613 6.80234 8.90441 7.01904 8.90441 7.23789C8.90442 7.45674 8.86132 7.67344 8.77757 7.87563C8.69383 8.07782 8.57108 8.26153 8.41633 8.41628C8.26159 8.57103 8.07788 8.69379 7.87569 8.77754C7.67351 8.8613 7.45681 8.90441 7.23796 8.90441C7.01911 8.90442 6.80241 8.86132 6.60022 8.77757C6.39803 8.69383 6.21432 8.57108 6.05957 8.41633L4.88118 7.23795ZM33.3333 16.6667C33.3335 16.8856 33.2904 17.1024 33.2067 17.3046C33.123 17.5069 33.0002 17.6907 32.8455 17.8455C32.6907 18.0002 32.5069 18.123 32.3046 18.2067C32.1024 18.2904 31.8856 18.3335 31.6667 18.3333H30C29.558 18.3333 29.1341 18.1577 28.8215 17.8452C28.5089 17.5326 28.3333 17.1087 28.3333 16.6667C28.3333 16.2246 28.5089 15.8007 28.8215 15.4882C29.1341 15.1756 29.558 15 30 15H31.6667C31.8856 14.9999 32.1024 15.0429 32.3046 15.1266C32.5069 15.2103 32.6907 15.3331 32.8455 15.4879C33.0002 15.6427 33.123 15.8264 33.2067 16.0287C33.2904 16.231 33.3335 16.4478 33.3333 16.6667ZM3.33333 18.3333H1.66667C1.22464 18.3333 0.800716 18.1577 0.488155 17.8452C0.175595 17.5326 0 17.1087 0 16.6667C0 16.2246 0.175595 15.8007 0.488155 15.4882C0.800716 15.1756 1.22464 15 1.66667 15H3.33333C3.77536 15 4.19928 15.1756 4.51184 15.4882C4.82441 15.8007 5 16.2246 5 16.6667C5 17.1087 4.82441 17.5326 4.51184 17.8452C4.19928 18.1577 3.77536 18.3333 3.33333 18.3333Z" fill="white"/>
</svg>
